<svg xmlns="http://www.w3.org/2000/svg" viewBox="0 0 288 72" fill="none" role="img" aria-hidden="true">
  <g transform="translate(4,8)">
    <path fill="#2E8B57" d="M18 6c-6 4-10 11-10 18 0 8 5 15 12 18l1-4c-5-3-8-8-8-14 0-5 3-10 7-13l-2-5z" />
    <path fill="#FF914D" d="M22 2c2 0 4 2 4 4v6h-8V6c0-2 2-4 4-4z" />
    <circle cx="22" cy="26" r="3" fill="#0070C0" />
    <path fill="#7C3AED" d="M28 34c-2 2-5 3-8 3-2 0-4-.5-6-1.5L12 38c2 1 5 2 8 2 5 0 9-2 12-5l-4-1z" />
  </g>
  <text x="52" y="38" font-family="system-ui,Segoe UI,sans-serif" font-size="26" font-weight="800" letter-spacing="-0.02em">
    <tspan fill="#2E8B57">D</tspan><tspan fill="#0070C0">I</tspan><tspan fill="#7C3AED">V</tspan><tspan fill="#0070C0">E</tspan><tspan fill="#FF914D">R</tspan><tspan fill="#2E8B57">T</tspan><tspan fill="#FF914D">Y</tspan>
  </text>
  <text x="52" y="56" font-family="system-ui,Segoe UI,sans-serif" font-size="11" font-weight="600">
    <tspan fill="#FF914D">by </tspan><tspan fill="#0070C0">Peru Learn Easy</tspan>
  </text>
</svg>
